<svg width="26" height="25" viewBox="0 0 26 25" fill="none" xmlns="http://www.w3.org/2000/svg">
<path d="M23.8154 5.95385H18.8538C18.8538 4.37479 18.2266 2.8604 17.11 1.74384C15.9934 0.627278 14.4791 0 12.9 0C11.3209 0 9.80656 0.627278 8.68999 1.74384C7.57343 2.8604 6.94615 4.37479 6.94615 5.95385H1.98462C1.45826 5.95385 0.953468 6.16294 0.58128 6.53513C0.209093 6.90731 0 7.41211 0 7.93846V22.8231C0 23.3494 0.209093 23.8542 0.58128 24.2264C0.953468 24.5986 1.45826 24.8077 1.98462 24.8077H23.8154C24.3417 24.8077 24.8465 24.5986 25.2187 24.2264C25.5909 23.8542 25.8 23.3494 25.8 22.8231V7.93846C25.8 7.41211 25.5909 6.90731 25.2187 6.53513C24.8465 6.16294 24.3417 5.95385 23.8154 5.95385ZM12.9 1.98462C13.9527 1.98462 14.9623 2.4028 15.7067 3.14718C16.451 3.89155 16.8692 4.90114 16.8692 5.95385H8.93077C8.93077 4.90114 9.34895 3.89155 10.0933 3.14718C10.8377 2.4028 11.8473 1.98462 12.9 1.98462ZM23.8154 22.8231H1.98462V7.93846H6.94615V9.92308C6.94615 10.1863 7.0507 10.4387 7.23679 10.6247C7.42289 10.8108 7.67528 10.9154 7.93846 10.9154C8.20164 10.9154 8.45403 10.8108 8.64013 10.6247C8.82622 10.4387 8.93077 10.1863 8.93077 9.92308V7.93846H16.8692V9.92308C16.8692 10.1863 16.9738 10.4387 17.1599 10.6247C17.346 10.8108 17.5984 10.9154 17.8615 10.9154C18.1247 10.9154 18.3771 10.8108 18.5632 10.6247C18.7493 10.4387 18.8538 10.1863 18.8538 9.92308V7.93846H23.8154V22.8231Z" fill="black"/>
</svg>
