<svg width="26" height="25" viewBox="0 0 26 25" fill="none" xmlns="http://www.w3.org/2000/svg">
<path fill-rule="evenodd" clip-rule="evenodd" d="M17.4634 6.25C17.4634 8.59721 15.5606 10.5 13.2134 10.5C10.8662 10.5 8.96343 8.59721 8.96343 6.25C8.96343 3.90279 10.8662 2 13.2134 2C15.5606 2 17.4634 3.90279 17.4634 6.25ZM19.4634 6.25C19.4634 9.70178 16.6652 12.5 13.2134 12.5C9.76165 12.5 6.96343 9.70178 6.96343 6.25C6.96343 2.79822 9.76165 0 13.2134 0C16.6652 0 19.4634 2.79822 19.4634 6.25ZM20.6381 17.5754C22.129 19.0663 23.1253 20.9596 23.5212 23H13.2134L2.90561 23C3.30153 20.9596 4.29785 19.0663 5.78881 17.5754C7.75794 15.6062 10.4287 14.5 13.2134 14.5C15.9982 14.5 18.6689 15.6062 20.6381 17.5754ZM24.1509 25C25.0139 25 25.7235 24.2977 25.6159 23.4415C25.2716 20.7009 24.0261 18.135 22.0523 16.1612C19.7081 13.817 16.5286 12.5 13.2134 12.5C9.89822 12.5 6.7188 13.817 4.37459 16.1612C2.40078 18.135 1.15523 20.7009 0.810916 23.4415C0.703344 24.2977 1.41298 25 2.27593 25L13.2134 25H24.1509Z" fill="black"/>
</svg>
