<svg width="29" height="29" viewBox="0 0 29 29" fill="none" xmlns="http://www.w3.org/2000/svg">
<path d="M12.2272 2C10.2045 2 8.22714 2.59982 6.54528 3.7236C4.86343 4.84738 3.55258 6.44465 2.7785 8.31343C2.00443 10.1822 1.8019 12.2386 2.19652 14.2224C2.59114 16.2063 3.56518 18.0286 4.99549 19.4589C6.42579 20.8892 8.2481 21.8633 10.232 22.2579C12.2159 22.6525 14.2722 22.45 16.141 21.6759C18.0098 20.9018 19.6071 19.591 20.7308 17.9091C21.8546 16.2273 22.4544 14.25 22.4544 12.2272C22.4543 9.51484 21.3767 6.91361 19.4588 4.99567C17.5408 3.07774 14.9396 2.00017 12.2272 2Z" stroke="black" stroke-width="2.08333" stroke-miterlimit="10"/>
<path d="M19.8574 19.8574L27 27" stroke="black" stroke-width="2.08333" stroke-miterlimit="10" stroke-linecap="round"/>
</svg>
