<svg width="42" height="42" viewBox="0 0 42 42" fill="none" xmlns="http://www.w3.org/2000/svg">
<circle cx="20.5" cy="20.5" r="18.5" fill="white"/>
<path d="M20.8746 0C32.4037 0 41.7492 9.2673 41.7492 20.7C41.7492 32.1327 32.4037 41.4 20.8746 41.4C9.34546 41.4 0 32.1327 0 20.7C0 9.2673 9.34546 0 20.8746 0ZM28.0754 29.1375C28.4593 27.9693 30.2582 16.3269 30.4805 14.0328C30.5477 13.338 30.3262 12.8763 29.8924 12.6702C29.3678 12.42 28.5909 12.5451 27.6897 12.8673C26.4535 13.3092 10.6506 19.9629 9.73754 20.3481C8.8717 20.7126 8.05305 21.1104 8.05305 21.6864C8.05305 22.0914 8.29538 22.3191 8.96337 22.5558C9.65858 22.8015 11.4093 23.328 12.4431 23.6106C13.4387 23.8833 14.5723 23.6466 15.2076 23.2551C15.881 22.8402 23.6527 17.6832 24.2109 17.2314C24.7682 16.7796 25.2129 17.3583 24.7573 17.811C24.3017 18.2628 18.9668 23.3973 18.2634 24.1083C17.4094 24.9714 18.0157 25.866 18.5884 26.2242C19.2427 26.6328 23.9486 29.763 24.6574 30.2652C25.3663 30.7674 26.0851 30.9951 26.7431 30.9951C27.4011 30.9951 27.7478 30.1356 28.0754 29.1375Z" fill="black"/>
</svg>
