<svg width="42" height="41" viewBox="0 0 42 41" fill="none" xmlns="http://www.w3.org/2000/svg">
<g clip-path="url(#clip0_308_438)">
<path d="M20.6729 41C32.0902 41 41.3458 31.8218 41.3458 20.5C41.3458 9.17816 32.0902 0 20.6729 0C9.25557 0 0 9.17816 0 20.5C0 31.8218 9.25557 41 20.6729 41Z" fill="black"/>
<path fill-rule="evenodd" clip-rule="evenodd" d="M19.8914 29.4913H21.514C21.514 29.4913 22.0041 29.4379 22.2543 29.1704C22.4846 28.9249 22.4773 28.4637 22.4773 28.4637C22.4773 28.4637 22.4456 26.3047 23.456 25.9868C24.4521 25.6736 25.7312 28.0734 27.087 28.9961C28.1122 29.6945 28.8913 29.5413 28.8913 29.5413L32.5163 29.4913C32.5163 29.4913 34.4127 29.3754 33.5135 27.8969C33.4398 27.7759 32.9899 26.8032 30.8182 24.8043C28.5452 22.7122 28.8496 23.0505 31.5877 19.4317C33.2552 17.2278 33.9218 15.8822 33.7136 15.3059C33.515 14.7571 32.2886 14.9021 32.2886 14.9021L28.2069 14.9274C28.2069 14.9274 27.9044 14.8864 27.6799 15.0194C27.4607 15.1499 27.3195 15.4539 27.3195 15.4539C27.3195 15.4539 26.6735 17.1594 25.8119 18.6098C23.9944 21.6703 23.2677 21.8318 22.9707 21.6418C22.2797 21.1989 22.4522 19.8625 22.4522 18.9131C22.4522 15.9473 22.9058 14.7107 21.5689 14.3905C21.1252 14.2842 20.7987 14.214 19.664 14.2027C18.2077 14.1877 16.975 14.2071 16.277 14.5462C15.8127 14.7717 15.4545 15.2742 15.6727 15.303C15.9424 15.3388 16.5534 15.4664 16.8773 15.9038C17.2956 16.468 17.2808 17.7353 17.2808 17.7353C17.2808 17.7353 17.5211 21.2267 16.7196 21.6604C16.1694 21.9579 15.4147 21.3506 13.7943 18.574C12.9641 17.1517 12.3372 15.5797 12.3372 15.5797C12.3372 15.5797 12.2164 15.2858 12.0008 15.1287C11.7391 14.9383 11.3736 14.8777 11.3736 14.8777L7.49496 14.9029C7.49496 14.9029 6.91271 14.919 6.69897 15.17C6.50881 15.3933 6.68386 15.8552 6.68386 15.8552C6.68386 15.8552 9.72041 22.9 13.1586 26.4502C16.3113 29.7051 19.8914 29.4913 19.8914 29.4913Z" fill="white"/>
</g>
<defs>
<clipPath id="clip0_308_438">
<rect width="41.3458" height="41" fill="white"/>
</clipPath>
</defs>
</svg>
